<svg width="1024" height="1024" viewBox="0 0 1024 1024" fill="none" xmlns="http://www.w3.org/2000/svg">
  <defs>
    <linearGradient id="grad-left" x1="250" y1="204" x2="385" y2="780" gradientUnits="userSpaceOnUse">
      <stop offset="0" stop-color="#2AA8FF"/>
      <stop offset="0.5" stop-color="#2379F4"/>
      <stop offset="1" stop-color="#0750D8"/>
    </linearGradient>
    <linearGradient id="grad-right" x1="650" y1="204" x2="810" y2="780" gradientUnits="userSpaceOnUse">
      <stop offset="0" stop-color="#BF54FF"/>
      <stop offset="0.55" stop-color="#8248F5"/>
      <stop offset="1" stop-color="#5E35F2"/>
    </linearGradient>
    <linearGradient id="grad-ribbon" x1="240" y1="620" x2="790" y2="320" gradientUnits="userSpaceOnUse">
      <stop offset="0" stop-color="#0879FF"/>
      <stop offset="0.45" stop-color="#3F6BFF"/>
      <stop offset="0.72" stop-color="#7652F5"/>
      <stop offset="1" stop-color="#B44EFF"/>
    </linearGradient>
    <linearGradient id="grad-main" x1="230" y1="780" x2="800" y2="210" gradientUnits="userSpaceOnUse">
      <stop offset="0" stop-color="#0EA5FF"/>
      <stop offset="0.5" stop-color="#4F6BFF"/>
      <stop offset="1" stop-color="#B64DFF"/>
    </linearGradient>
    <filter id="shadow" x="120" y="120" width="784" height="760" filterUnits="userSpaceOnUse">
      <feDropShadow dx="0" dy="22" stdDeviation="28" flood-color="#0F172A" flood-opacity="0.20"/>
    </filter>
    <filter id="codeGlow" x="340" y="400" width="340" height="250" filterUnits="userSpaceOnUse">
      <feDropShadow dx="0" dy="0" stdDeviation="7" flood-color="#FFFFFF" flood-opacity="0.25"/>
    </filter>
  </defs>


  <g filter="url(#shadow)">
    <path d="M250 204 L250 780 L390 694 L390 312 Z" fill="url(#grad-left)"/>
    <path d="M774 204 L774 780 L634 694 L634 312 Z" fill="url(#grad-right)"/>
    <path d="M255 610
             C335 470 455 420 610 424
             C692 426 746 390 774 312
             C760 442 706 542 632 588
             C505 666 355 670 255 610 Z"
          fill="url(#grad-ribbon)"/>
    <path d="M262 596
             C344 468 461 429 610 431
             C690 433 736 396 762 328"
          fill="none"
          stroke="rgba(255,255,255,0.22)"
          stroke-width="9"
          stroke-linecap="round"/>
  </g>


  <g filter="url(#codeGlow)">
    <path d="M448 478 L398 522 L448 566" fill="none" stroke="#FFFFFF" stroke-width="34" stroke-linecap="round" stroke-linejoin="round"/>
    <path d="M576 478 L626 522 L576 566" fill="none" stroke="#FFFFFF" stroke-width="34" stroke-linecap="round" stroke-linejoin="round"/>
    <path d="M535 450 L490 594" fill="none" stroke="#FFFFFF" stroke-width="34" stroke-linecap="round"/>
  </g>

</svg>
